PathFileType	4	(X/Y/Z)	/Users/itak/Documents/Research/Walk-IL/dataset/trc/00435_00167.trc
DataRate	CameraRate	NumFrames	NumMarkers	Units	OrigDataRate	OrigDataStartFrame	OrigNumFrames
100.000000	100.000000	4	53	mm	100.000000	255	510
Frame#	Time	RPSI			LPSI			L3			STRN			T10			C7			CLAV			RBAK			LBAK			LSHO			LUPA			LAEL			LAOL			LWTS			LWPS			LFRA			LIFD			LHPS			LHTS			RSHO			RUPA			RAEL			RAOL			RWTS			RWPS			RFRA			RIFD			RHTS			RHPS			RBHD			LFHD			RFHD			LBHD			LHIP			RHIP			RASI			LASI			LKNE			LTHI			LANK			LTIP			LTOE			LMT1			LMT5			LHEE			RKNE			RTHI			RANK			RTIP			RTOE			RMT1			RMT5			RHEE			
		X1	Y1	Z1	X2	Y2	Z2	X3	Y3	Z3	X4	Y4	Z4	X5	Y5	Z5	X6	Y6	Z6	X7	Y7	Z7	X8	Y8	Z8	X9	Y9	Z9	X10	Y10	Z10	X11	Y11	Z11	X12	Y12	Z12	X13	Y13	Z13	X14	Y14	Z14	X15	Y15	Z15	X16	Y16	Z16	X17	Y17	Z17	X18	Y18	Z18	X19	Y19	Z19	X20	Y20	Z20	X21	Y21	Z21	X22	Y22	Z22	X23	Y23	Z23	X24	Y24	Z24	X25	Y25	Z25	X26	Y26	Z26	X27	Y27	Z27	X28	Y28	Z28	X29	Y29	Z29	X30	Y30	Z30	X31	Y31	Z31	X32	Y32	Z32	X33	Y33	Z33	X34	Y34	Z34	X35	Y35	Z35	X36	Y36	Z36	X37	Y37	Z37	X38	Y38	Z38	X39	Y39	Z39	X40	Y40	Z40	X41	Y41	Z41	X42	Y42	Z42	X43	Y43	Z43	X44	Y44	Z44	X45	Y45	Z45	X46	Y46	Z46	X47	Y47	Z47	X48	Y48	Z48	X49	Y49	Z49	X50	Y50	Z50	X51	Y51	Z51	X52	Y52	Z52	X53	Y53	Z53	

256	2.55	-293.708251953125	928.5984497070312	70.87852478027344	-195.24462890625	907.431884765625	-29.39807510375977	-261.5967102050781	1015.009094238281	44.77028274536133	-32.86509323120117	1204.373657226562	202.2462615966797	-274.7708740234375	1140.810424804688	37.18276214599609	-219.1360778808594	1406.378540039062	88.17858123779297	-56.57402420043945	1318.626098632812	175.0790252685547	-328.4542541503906	1291.68994140625	136.6789398193359	-193.1271667480469	1358.367553710938	-11.87752532958984	-61.12872314453125	1371.274169921875	-25.04384613037109	-30.4989013671875	1250.299926757812	-117.187126159668	-24.34756278991699	1032.01953125	-140.7779846191406	-126.8706436157227	1032.64697265625	-123.7996978759766	-17.05717658996582	817.1212768554688	-81.64247131347656	-29.57626152038574	811.7557373046875	-154.4468231201172	-17.43779563903809	941.9869995117188	-146.4917449951172	-49.94580841064453	651.74609375	-101.8773574829102	-42.97347640991211	731.787109375	-158.8300018310547	-19.54483222961426	725.4851684570312	-91.90921783447266	-243.9054412841797	1377.963500976562	263.0639953613281	-296.7795104980469	1318.8359375	323.0533142089844	-305.9812316894531	1037.961303710938	403.6626892089844	-334.4595947265625	1011.84912109375	347.4685363769531	-170.6707763671875	856.7489013671875	431.3964538574219	-252.9012603759766	831.206787109375	454.1373901367188	-300.1102294921875	981.2421875	420.1317443847656	-148.5771789550781	702.2571411132812	462.3048400878906	-147.9949188232422	763.7335205078125	464.7444152832031	-222.3090209960938	749.61328125	472.7325134277344	-196.3738708496094	1603.251342773438	185.5476379394531	3.55817699432373	1615.686279296875	133.9722290039062	-71.60560607910156	1625.339965820312	240.5382080078125	-107.3203277587891	1594.324951171875	31.01727294921875	-5.929238319396973	813.9218139648438	-1.157388806343079	-328.5480346679688	833.0172729492188	250.0494079589844	-205.1117248535156	858.4210815429688	285.4540710449219	-10.28839111328125	860.0118408203125	120.1883010864258	113.6829986572266	437.5060729980469	151.5115509033203	90.73045349121094	582.2619018554688	104.0454940795898	162.7335510253906	30.15929794311523	184.8947143554688	152.4667358398438	288.7853698730469	169.9437255859375	271.5027770996094	96.61591339111328	378.9072875976562	199.3100433349609	76.84536743164062	353.7770385742188	272.2641296386719	72.04079437255859	270.1310424804688	91.16850280761719	21.30239486694336	184.1091613769531	-374.6439208984375	452.8704833984375	170.4542388916016	-323.2590942382812	693.35400390625	265.3289184570312	-571.7864990234375	99.57875823974609	-4.305026531219482	-439.5072937011719	324.5721740722656	127.2761306762695	-377.4239501953125	44.47075271606445	40.23527145385742	-409.7164001464844	58.5757942199707	-10.96732902526855	-482.8817443847656	43.98002243041992	68.43296813964844	-599.5851440429688	138.9470977783203	-71.372802734375	
257	2.56	-282.2671813964844	928.1043701171875	76.61125946044922	-183.4281158447266	907.5547485351562	-23.58142280578613	-249.2791900634766	1014.655517578125	50.70329666137695	-21.45210456848145	1204.267333984375	208.3223571777344	-262.5986938476562	1140.369750976562	42.34001922607422	-207.1781616210938	1406.201782226562	92.88621520996094	-45.03593444824219	1318.444458007812	180.8370971679688	-316.6449890136719	1291.38916015625	140.8770141601562	-180.5393829345703	1358.021362304688	-6.954916000366211	-48.37812042236328	1370.757934570312	-19.43107986450195	-17.82629585266113	1249.409057617188	-111.307975769043	-13.94988441467285	1030.920166015625	-134.5676727294922	-116.514045715332	1032.8740234375	-117.9660034179688	-10.69039058685303	815.3034057617188	-76.69564056396484	-22.52830123901367	810.7487182617188	-149.6634216308594	-8.362247467041016	940.8394775390625	-140.7144775390625	-47.50425720214844	650.8025512695312	-98.62265777587891	-37.86093902587891	731.114501953125	-154.7818603515625	-15.38197231292725	723.6859130859375	-87.68988037109375	-233.0294036865234	1377.843139648438	267.7898559570312	-286.598876953125	1318.565673828125	327.174072265625	-298.8674621582031	1037.04833984375	405.4497375488281	-326.7648010253906	1012.035461425781	348.4283447265625	-167.5985412597656	852.8765258789062	433.0077819824219	-250.7487182617188	828.8381958007812	454.1925659179688	-294.3030700683594	980.0772094726562	421.3471984863281	-149.440185546875	697.5440063476562	462.4881286621094	-147.5221099853516	758.9623413085938	465.5935363769531	-222.2314300537109	746.4061889648438	472.3043518066406	-185.3953399658203	1603.193115234375	189.9436492919922	14.66207313537598	1615.995361328125	138.8365478515625	-60.77983856201172	1625.801513671875	245.1551208496094	-95.91580200195312	1593.955322265625	35.68076324462891	6.024881839752197	814.2963256835938	5.343928337097168	-317.4006042480469	832.3731689453125	255.7319488525391	-194.0731201171875	857.841552734375	291.3663024902344	1.388188242912292	860.3641357421875	126.6697540283203	123.9966735839844	437.6484680175781	159.1495971679688	101.7262420654297	581.9757080078125	110.9553909301758	164.1608276367188	29.94173812866211	186.1717681884766	160.2352294921875	287.6556701660156	176.6462860107422	273.7959594726562	87.25798797607422	383.1597900390625	201.3429870605469	70.63221740722656	356.6612548828125	274.4502563476562	65.56961059570312	273.3891906738281	92.25315856933594	23.20905303955078	184.7816009521484	-365.2294311523438	453.0383605957031	177.0821838378906	-312.648193359375	692.9985961914062	271.4037780761719	-569.0470581054688	103.9475860595703	-1.200740575790405	-432.3856811523438	326.2587585449219	133.0636749267578	-377.502197265625	44.54779815673828	40.21651077270508	-408.6264953613281	59.01659393310547	-10.01744365692139	-481.998291015625	43.95603561401367	69.15229797363281	-595.3369140625	145.9549102783203	-67.12669372558594	
258	2.57	-270.9834594726562	927.7591552734375	82.63322448730469	-171.9280700683594	908.1454467773438	-17.64510726928711	-236.9638977050781	1014.695251464844	56.85451889038086	-9.896809577941895	1204.427978515625	214.3948516845703	-250.515869140625	1140.252197265625	47.60884857177734	-195.1285552978516	1406.296630859375	97.66532135009766	-33.41247940063477	1318.52099609375	186.6228179931641	-304.7418212890625	1291.367797851562	145.1831970214844	-167.8506011962891	1357.973876953125	-1.979483723640442	-35.51327896118164	1370.482421875	-13.74788188934326	-4.974250316619873	1248.7509765625	-105.3484954833984	-3.219240665435791	1030.07568359375	-128.2938842773438	-105.8437347412109	1033.29248046875	-112.2235336303711	-3.925423145294189	813.8684692382812	-71.49705505371094	-14.87422180175781	810.01220703125	-144.6445159912109	1.143641591072083	939.963134765625	-134.8000335693359	-44.49019622802734	650.3040771484375	-95.00071716308594	-32.0721549987793	730.7369995117188	-150.4386291503906	-10.74982738494873	722.320556640625	-83.13424682617188	-222.0089111328125	1377.97607421875	272.6188049316406	-276.2854919433594	1318.551513671875	331.37255859375	-291.7129211425781	1036.4326171875	407.2001342773438	-319.0054931640625	1012.5791015625	349.3560180664062	-164.712646484375	849.2470092773438	434.4090881347656	-248.7596435546875	826.8297119140625	454.018798828125	-288.4917297363281	979.2353515625	422.4792175292969	-150.6679229736328	693.1405639648438	462.3116455078125	-147.3648376464844	754.458251953125	466.1395568847656	-222.4468841552734	743.5790405273438	471.5872497558594	-174.2962036132812	1603.390014648438	194.4105682373047	25.8802490234375	1616.523681640625	143.7844848632812	-49.84499740600586	1626.465698242188	249.8500061035156	-84.38274383544922	1593.864624023438	40.41572952270508	17.77255821228027	815.2396240234375	11.73977851867676	-306.0610656738281	831.68359375	261.6461791992188	-182.820068359375	857.3828735351562	297.2738037109375	13.0529842376709	861.2090454101562	133.0149383544922	134.3558349609375	438.2462768554688	166.7373962402344	112.7830200195312	582.3358764648438	117.9470367431641	165.5721435546875	29.96138191223145	187.2613067626953	167.9841613769531	287.0315246582031	183.0870819091797	275.6726684570312	78.52854156494141	386.9489135742188	203.0643463134766	65.11548614501953	359.1367797851562	276.4762878417969	59.79392242431641	276.2812805175781	93.45908355712891	25.11102294921875	185.2898864746094	-355.2224426269531	453.1249694824219	184.1990966796875	-301.6277160644531	692.6361694335938	277.6264953613281	-565.740478515625	108.6279296875	2.11338210105896	-424.7279663085938	328.0351257324219	139.2664947509766	-377.6297912597656	44.61250686645508	40.22712326049805	-407.323974609375	59.4262809753418	-9.013553619384766	-480.9501037597656	43.99921417236328	69.92265319824219	-590.1781616210938	153.2966003417969	-62.57151794433594	
259	2.58	-259.8739929199219	927.599365234375	88.93582153320312	-160.7692108154297	909.1931762695312	-11.57674312591553	-224.7639770507812	1015.15234375	63.15912246704102	1.757442712783813	1204.87109375	220.4318237304688	-238.5952758789062	1140.4814453125	52.97543716430664	-183.0492858886719	1406.664184570312	102.5179443359375	-21.75595092773438	1318.875244140625	192.4142913818359	-292.7943725585938	1291.64990234375	149.6174468994141	-155.1240081787109	1358.232177734375	3.052351713180542	-22.6034107208252	1370.47802734375	-8.004613876342773	8.023406982421875	1248.368896484375	-99.31977081298828	7.846263885498047	1029.518798828125	-121.9369583129883	-94.85715484619141	1033.921142578125	-106.5608139038086	3.288176774978638	812.8382568359375	-66.03741455078125	-6.5786452293396	809.5609741210938	-139.3774108886719	11.10452461242676	939.3904418945312	-128.7312622070312	-40.80230331420898	650.2508544921875	-91.01551818847656	-25.5505313873291	730.6554565429688	-145.7947692871094	-5.575146675109863	721.4046020507812	-78.24129486083984	-210.8573150634766	1378.371337890625	277.5503540039062	-265.8294067382812	1318.82421875	335.6745910644531	-284.5145874023438	1036.151977539062	408.9245910644531	-311.1860656738281	1013.509033203125	350.271728515625	-161.9889526367188	845.9151611328125	435.5947570800781	-246.8951263427734	825.2297973632812	453.6353759765625	-282.6672058105469	978.7600708007812	423.5424499511719	-152.2160949707031	689.11669921875	461.7535095214844	-147.4853363037109	750.2833862304688	466.365966796875	-222.9089660644531	741.1941528320312	470.5850830078125	-163.0996704101562	1603.838500976562	198.9467468261719	37.18938064575195	1617.240478515625	148.8116912841797	-38.82071304321289	1627.3154296875	254.6202239990234	-72.75309753417969	1594.044921875	45.21854782104492	29.29151916503906	816.7208251953125	18.02181434631348	-294.5635986328125	830.9761962890625	267.7635498046875	-171.3754730224609	857.0823974609375	303.1565246582031	24.6612720489502	862.5361938476562	139.2078247070312	144.6307830810547	439.1539916992188	174.2049865722656	123.8894119262695	583.3847045898438	125.0995330810547	166.8716278076172	30.09026145935059	188.1463470458984	175.5380249023438	286.71142578125	189.1282958984375	277.1180114746094	70.60420989990234	390.1571655273438	204.4542388916016	60.33900833129883	361.1717834472656	278.3030395507812	54.8320426940918	278.7167358398438	94.70391082763672	26.8387336730957	185.6314697265625	-344.6171875	453.1099853515625	191.8994293212891	-290.2322082519531	692.2904663085938	284.0050659179688	-561.78076171875	113.6674880981445	5.672664642333984	-416.5230102539062	329.8966369628906	145.9532470703125	-377.7713623046875	44.62764358520508	40.29568481445312	-405.7952270507812	59.83171844482422	-7.913490295410156	-479.7167663574219	44.13433074951172	70.80419158935547	-584.020751953125	160.99267578125	-57.67100524902344	
